<mxfile host="65bd71144e">
    <diagram id="Ce9anDj1p6_dD407dwFQ" name="Página-1">
        <mxGraphModel dx="532" dy="169" grid="1" gridSize="10" guides="1" tooltips="1" connect="1" arrows="1" fold="1" page="1" pageScale="1" pageWidth="1920" pageHeight="1200" math="0" shadow="0">
            <root>
                <mxCell id="0"/>
                <mxCell id="1" parent="0"/>
                <mxCell id="79_H8rOo4XlwRuA823m1-1" value="PromedioAritmetico" style="swimlane;fontStyle=1;align=center;verticalAlign=top;childLayout=stackLayout;horizontal=1;startSize=26;horizontalStack=0;resizeParent=1;resizeParentMax=0;resizeLast=0;collapsible=1;marginBottom=0;whiteSpace=wrap;html=1;" parent="1" vertex="1">
                    <mxGeometry x="450" y="250" width="160" height="120" as="geometry"/>
                </mxCell>
                <mxCell id="79_H8rOo4XlwRuA823m1-2" value="- cal1&lt;span style=&quot;background-color: initial;&quot;&gt;: double&lt;/span&gt;&lt;div&gt;&lt;span style=&quot;background-color: initial;&quot;&gt;- cal2: double&lt;/span&gt;&lt;/div&gt;&lt;div&gt;&lt;span style=&quot;background-color: initial;&quot;&gt;- cal3: double&lt;/span&gt;&lt;/div&gt;" style="text;strokeColor=none;fillColor=none;align=left;verticalAlign=top;spacingLeft=4;spacingRight=4;overflow=hidden;rotatable=0;points=[[0,0.5],[1,0.5]];portConstraint=eastwest;whiteSpace=wrap;html=1;" parent="79_H8rOo4XlwRuA823m1-1" vertex="1">
                    <mxGeometry y="26" width="160" height="54" as="geometry"/>
                </mxCell>
                <mxCell id="79_H8rOo4XlwRuA823m1-3" value="" style="line;strokeWidth=1;fillColor=none;align=left;verticalAlign=middle;spacingTop=-1;spacingLeft=3;spacingRight=3;rotatable=0;labelPosition=right;points=[];portConstraint=eastwest;strokeColor=inherit;" parent="79_H8rOo4XlwRuA823m1-1" vertex="1">
                    <mxGeometry y="80" width="160" height="8" as="geometry"/>
                </mxCell>
                <mxCell id="79_H8rOo4XlwRuA823m1-4" value="&lt;div&gt;+ calcularProm():double&lt;/div&gt;" style="text;strokeColor=none;fillColor=none;align=left;verticalAlign=top;spacingLeft=4;spacingRight=4;overflow=hidden;rotatable=0;points=[[0,0.5],[1,0.5]];portConstraint=eastwest;whiteSpace=wrap;html=1;" parent="79_H8rOo4XlwRuA823m1-1" vertex="1">
                    <mxGeometry y="88" width="160" height="32" as="geometry"/>
                </mxCell>
                <mxCell id="2" value="&lt;span style=&quot;color: rgb(84, 82, 81); font-family: Montserrat, Arial, Helvetica, sans-serif; font-size: 16px; text-align: left; background-color: rgb(248, 249, 250);&quot;&gt;4.- Diseñe una clase con sus propiedades y métodos en UML, que se necesita nobtener el promedio aritmético de un estudiante a partir de sus tres notas parciales.&lt;/span&gt;" style="text;html=1;strokeColor=none;fillColor=none;align=center;verticalAlign=middle;whiteSpace=wrap;rounded=0;" vertex="1" parent="1">
                    <mxGeometry x="350" y="170" width="360" height="30" as="geometry"/>
                </mxCell>
            </root>
        </mxGraphModel>
    </diagram>
</mxfile>